<svg width="121" height="33" viewBox="0 0 121 33" fill="none" xmlns="http://www.w3.org/2000/svg">
<path d="M16.715 7.93218C16.647 7.84218 16.409 7.67218 16.001 7.42218C15.593 7.17218 15.083 6.91218 14.471 6.64018C13.859 6.36818 13.19 6.13018 12.465 5.92618C11.7572 5.72463 11.0249 5.62166 10.289 5.62018C8.294 5.62018 7.297 6.28918 7.297 7.62618C7.297 8.03418 7.404 8.37418 7.62 8.64618C7.835 8.91818 8.152 9.16218 8.572 9.37718C8.991 9.59218 9.518 9.79118 10.152 9.97218L11.558 10.3652L12.363 10.5842C13.519 10.9012 14.561 11.2472 15.491 11.6212C16.42 11.9952 17.208 12.4602 17.854 13.0152C18.4985 13.5684 19.0098 14.2599 19.35 15.0382C19.7 15.8312 19.877 16.7832 19.877 17.8942C19.877 19.2542 19.622 20.4042 19.112 21.3452C18.602 22.2852 17.927 23.0452 17.089 23.6232C16.249 24.2012 15.287 24.6202 14.199 24.8812C13.111 25.1412 11.989 25.2722 10.833 25.2722C8.99121 25.2617 7.16001 24.9928 5.393 24.4732C4.509 24.2132 3.653 23.9012 2.826 23.5382C2.02395 23.1896 1.25542 22.7686 0.529999 22.2802L2.978 17.4182C3.068 17.5312 3.363 17.7472 3.862 18.0642C4.36 18.3812 4.978 18.6992 5.715 19.0162C6.451 19.3332 7.273 19.6162 8.18 19.8662C9.086 20.1162 10.004 20.2402 10.934 20.2402C12.906 20.2402 13.892 19.6402 13.892 18.4382C13.892 17.9852 13.744 17.6112 13.45 17.3162C13.155 17.0212 12.747 16.7552 12.226 16.5172C11.7372 16.2984 11.2349 16.1113 10.722 15.9572L9.02 15.4622L8.044 15.1742C6.933 14.8342 5.97 14.4662 5.154 14.0692C4.338 13.6722 3.664 13.2132 3.131 12.6922C2.60788 12.1853 2.20176 11.5703 1.941 10.8902C1.68 10.2102 1.55 9.41718 1.55 8.51018C1.55 7.24018 1.788 6.11918 2.264 5.14418C2.72289 4.19125 3.38429 3.35 4.202 2.67918C5.04251 1.99738 6.00636 1.48371 7.041 1.16618C8.117 0.826176 9.256 0.656176 10.458 0.656176C11.296 0.656176 12.124 0.736176 12.94 0.894176C13.756 1.05318 14.538 1.25718 15.286 1.50618C16.034 1.75618 16.731 2.03918 17.376 2.35618C18.023 2.67318 18.618 2.99118 19.162 3.30818L16.714 7.93218H16.715ZM40.139 25.0002H34.699V14.9702C34.699 13.8142 34.472 12.9642 34.019 12.4202C33.565 11.8762 32.942 11.6042 32.149 11.6042C31.831 11.6042 31.486 11.6782 31.112 11.8252C30.7186 11.984 30.3517 12.2018 30.024 12.4712C29.6617 12.7654 29.336 13.1022 29.054 13.4742C28.757 13.864 28.5271 14.3006 28.374 14.7662V25.0002H22.934V0.180176H28.374V10.1422C29.0047 9.10217 29.9034 8.2508 30.976 7.67718C32.052 7.09918 33.236 6.81018 34.529 6.81018C35.73 6.81018 36.699 7.02018 37.436 7.43918C38.172 7.85918 38.739 8.39118 39.136 9.03718C39.532 9.68318 39.799 10.4082 39.935 11.2132C40.071 12.0182 40.139 12.8052 40.139 13.5762V25.0002V25.0002ZM52.479 25.3402C50.96 25.3402 49.606 25.0902 48.416 24.5922C47.226 24.0932 46.223 23.4192 45.406 22.5692C44.5916 21.7212 43.9611 20.7141 43.554 19.6112C43.1337 18.4857 42.9203 17.2936 42.924 16.0922C42.924 14.8682 43.134 13.6952 43.554 12.5732C43.9614 11.4701 44.5923 10.4631 45.407 9.61518C46.223 8.76518 47.226 8.08518 48.416 7.57518C49.606 7.06518 50.96 6.81018 52.479 6.81018C53.998 6.81018 55.346 7.06518 56.525 7.57518C57.704 8.08518 58.701 8.76518 59.517 9.61518C60.3331 10.4653 60.9691 11.4714 61.387 12.5732C61.8179 13.6962 62.0369 14.8893 62.033 16.0922C62.0367 17.2936 61.8233 18.4857 61.403 19.6112C60.9959 20.7141 60.3654 21.7212 59.551 22.5692C58.735 23.4192 57.731 24.0932 56.541 24.5922C55.351 25.0912 53.998 25.3402 52.479 25.3402V25.3402ZM48.5 16.0922C48.5 17.4972 48.874 18.6252 49.622 19.4752C50.37 20.3252 51.322 20.7502 52.478 20.7502C53.0183 20.756 53.5529 20.6398 54.042 20.4102C54.518 20.1832 54.932 19.8662 55.282 19.4582C55.6499 19.0216 55.9328 18.5199 56.116 17.9792C56.3248 17.3722 56.4283 16.734 56.422 16.0922C56.422 14.6872 56.048 13.5592 55.3 12.7092C54.552 11.8592 53.611 11.4342 52.478 11.4342C51.9391 11.4298 51.4058 11.5432 50.9152 11.7664C50.4247 11.9895 49.9888 12.3171 49.638 12.7262C49.2708 13.1629 48.9886 13.6646 48.806 14.2052C48.5972 14.8121 48.4937 15.4503 48.5 16.0922V16.0922ZM76.276 11.8082C74.961 11.8312 73.771 12.0462 72.706 12.4542C71.641 12.8622 70.87 13.4742 70.394 14.2902V25.0002H64.954V7.15018H69.952V10.7542C70.564 9.55318 71.352 8.61218 72.315 7.93218C73.278 7.25218 74.304 6.90118 75.392 6.87818H75.936C76.049 6.87818 76.163 6.88918 76.276 6.91218V11.8082V11.8082ZM90.35 24.0482C89.5136 24.3961 88.6563 24.6914 87.783 24.9322C86.82 25.2042 85.851 25.3402 84.876 25.3402C84.196 25.3402 83.556 25.2552 82.956 25.0852C82.3774 24.9269 81.8384 24.6489 81.374 24.2692C80.921 23.8952 80.564 23.4022 80.304 22.7902C80.042 22.1782 79.912 21.4412 79.912 20.5802V11.2642H77.634V7.15018H79.912V1.47218H85.352V7.15018H88.99V11.2642H85.352V18.7102C85.352 19.3002 85.499 19.7242 85.794 19.9852C86.089 20.2452 86.463 20.3762 86.916 20.3762C87.324 20.3762 87.743 20.3082 88.174 20.1722C88.604 20.0362 88.979 19.8892 89.296 19.7302L90.35 24.0482V24.0482ZM92.627 0.180176H98.067V18.6422C98.067 20.0022 98.645 20.6822 99.801 20.6822C100.073 20.6822 100.373 20.6422 100.702 20.5632C101.031 20.4832 101.332 20.3652 101.603 20.2062L102.317 24.2862C101.637 24.6032 100.855 24.8532 99.971 25.0342C99.087 25.2152 98.26 25.3062 97.489 25.3062C95.925 25.3062 94.724 24.8982 93.885 24.0822C93.046 23.2662 92.627 22.0872 92.627 20.5462V0.180176V0.180176ZM104.083 27.6862C104.537 27.8452 104.962 27.9582 105.358 28.0262C105.712 28.0902 106.07 28.1243 106.429 28.1282C107.087 28.1282 107.597 27.9012 107.959 27.4482C108.322 26.9952 108.651 26.1782 108.945 25.0002L102.145 7.15018H107.755L111.903 20.3422L115.473 7.15018H120.573L113.773 27.8902C113.324 29.3256 112.431 30.5815 111.223 31.4772C109.999 32.3952 108.549 32.8542 106.871 32.8542C106.409 32.8535 105.949 32.8137 105.494 32.7352C105.012 32.651 104.54 32.5201 104.084 32.3442V27.6862H104.083Z" fill="#F5F7FA"/>
</svg>
